<?xml version="1.0" standalone="no"?>
<!DOCTYPE svg PUBLIC "-//W3C//DTD SVG 20010904//EN"
 "http://www.w3.org/TR/2001/REC-SVG-20010904/DTD/svg10.dtd">
<svg version="1.0" xmlns="http://www.w3.org/2000/svg"
 width="313.000000pt" height="161.000000pt" viewBox="0 0 313.000000 161.000000"
 preserveAspectRatio="xMidYMid meet">

<g transform="translate(0.000000,161.000000) scale(0.100000,-0.100000)"
fill="#000000" stroke="none">
<path d="M0 805 l0 -805 1565 0 1565 0 0 805 0 805 -1565 0 -1565 0 0 -805z
m1740 5 l0 -270 -167 0 c-185 0 -217 8 -257 63 -30 40 -35 206 -9 256 33 63
61 75 186 81 l112 5 3 68 3 67 64 0 65 0 0 -270z m-1070 -70 l0 -200 -70 0
-70 0 0 200 0 200 70 0 70 0 0 -200z m481 177 c46 -30 57 -79 58 -244 l1 -133
-70 0 -70 0 0 126 c0 69 -5 134 -10 145 -9 16 -22 19 -83 19 l-72 0 3 -145 3
-145 -70 0 -71 0 0 200 0 200 174 0 c164 0 175 -1 207 -23z m919 -32 l0 -55
-45 0 c-34 0 -47 -5 -55 -19 -5 -11 -10 -76 -10 -145 l0 -126 -65 0 -65 0 0
155 c0 219 17 244 168 245 l72 0 0 -55z m520 -146 l0 -200 -179 3 c-164 3
-182 5 -208 24 -47 35 -58 69 -58 174 0 77 4 101 20 130 36 61 67 70 258 70
l167 0 0 -201z"/>
<path d="M1442 818 c-7 -7 -12 -40 -12 -78 0 -38 5 -71 12 -78 7 -7 43 -12 90
-12 l78 0 0 90 0 90 -78 0 c-47 0 -83 -5 -90 -12z"/>
<path d="M2292 818 c-7 -7 -12 -40 -12 -78 0 -38 5 -71 12 -78 7 -7 43 -12 90
-12 l78 0 0 90 0 90 -78 0 c-47 0 -83 -5 -90 -12z"/>
</g>
</svg>
